<?xml version="1.0" encoding="utf-8"?>
<!-- Generator: Adobe Illustrator 14.0.0, SVG Export Plug-In . SVG Version: 6.00 Build 43363)  -->
<!DOCTYPE svg PUBLIC "-//W3C//DTD SVG 1.0//EN" "http://www.w3.org/TR/2001/REC-SVG-20010904/DTD/svg10.dtd">
<svg version="1.0" id="Layer_1" xmlns="http://www.w3.org/2000/svg" xmlns:xlink="http://www.w3.org/1999/xlink" x="0px" y="0px"
	 width="256px" height="93.983px" viewBox="0 0 256 93.983" enable-background="new 0 0 256 93.983" xml:space="preserve">
<g>
	<path fill-rule="evenodd" clip-rule="evenodd" fill="#1A171B" d="M20.189,40.443V19.017c0-1.983-1.623-2.568-3.329-2.744v-1.877
		h13.052v1.872c-1.639,0.16-3.028,0.696-3.028,2.586v21.191c0,7.179,4.447,10.057,10.452,10.057c10.9,0,10.9-8.493,10.9-16.287
		v-9.192c0-6.636-0.56-8.081-3.955-8.36v-1.868H55.26v1.856c-2.006,0.199-3.43,1.165-3.43,5.406v15.819
		c0,8.966-4.29,15.819-15.662,15.819C26.189,53.297,20.189,49.481,20.189,40.443z"/>
	<path fill-rule="evenodd" clip-rule="evenodd" fill="#1A171B" d="M76.989,47.89V19.634c0-2.357-1.343-3.136-3.733-3.36v-2.06
		c4.364,0.063,8.695,0.123,13.078,0.123c7.336,0,11.931-0.083,16.452-0.169l0.222,6.171h-2.081
		c-1.111-3.189-3.173-3.668-8.898-3.668H83.69v14.732h7.325c3.169,0,4.897-0.055,5.425-2.621h1.574v7.51h-1.639
		c-0.518-2.112-1.965-2.39-5.36-2.39H83.69v12.433c0,3.888,1.519,4.879,4.761,4.974l0.028,1.833H73.256v-1.896
		C75.646,51.025,76.989,50.25,76.989,47.89z"/>
	<path fill-rule="evenodd" clip-rule="evenodd" fill="#1A171B" d="M236.402,41.696v2.508l-0.027,7.387
		c-3.869,1.037-9.031,2.258-14.625,2.258c-12.543,0-21.354-8.809-21.354-19.713c0-12.472,9.67-20.34,21.893-20.34
		c2.043,0,3.67,0.231,7.338,0.696c1.006,0.162,6.078,1.093,7.162,1.329l0.494,7.177h-2.559c-1.777-3.543-4.234-6.71-11.023-6.71
		c-8.494,0-15.67,5.143-15.67,17.608c0,7.253,4.053,17.463,16.447,17.463c1.947,0,3.746-0.467,5.531-1.248
		c0-0.693,0.156-4.986,0.156-6c0-3.446-0.389-4.898-3.199-5.355v-1.935h12.172v1.813C236.969,38.83,236.402,39.546,236.402,41.696z"
		/>
	<path fill-rule="evenodd" clip-rule="evenodd" fill="#C80019" d="M183.598,41.687c-1.268,1.354-5.83,5.318-7.346,5.318
		c-0.598,0-1.365-0.337-1.365-1.015c0-0.927,0.768-2.621,1.191-3.962l6.752-19.755c0.42-1.188,0.85-2.788,0.85-4.133
		c0-1.865-0.762-3.458-3.381-3.458c-8.02,0-20.684,14.173-25.24,19.915h-0.17l4.053-12.581c0.516-1.514,0.926-3.206,0.926-4.549
		c0-1.611-1.186-2.785-3.795-2.785c-7.506,0-20.004,13.921-24.047,19.749h-0.168l4.379-12.75c0.338-1.015,0.934-2.612,0.934-4.052
		c0-1.597-0.842-2.947-2.871-2.947c-5.577,0-11.482,6.749-14.684,10.708c0,0-0.827,1.005-0.168,1.563
		c0.744,0.638,1.44-0.037,1.44-0.037l2.274-2.531c1.519-1.521,3.127-2.954,4.893-2.954c1.018,0,1.35,0.753,1.35,1.688
		c0,0.753-0.25,1.597-0.332,2.105l-8.789,26.549c-0.192,0.957,1.599,1.481,2.45,1.481c2.138,0,3.121-0.636,3.37-1.32l1.528-4.426
		c2.279-6.417,5.906-12.236,10.556-17.222c2.699-2.949,7.762-8.855,12.32-8.855c1.178,0,1.6,0.934,1.6,2.106
		c0,2.196-1.176,5.399-1.439,6.248l-7.377,22.021c-0.162,0.691,0.582,1.657,2.873,1.662c2.113,0.009,2.699-0.737,2.949-1.503
		l1.395-3.453c2.352-6.072,4.725-10.457,8.688-15.345c2.705-3.3,10.387-11.815,14.777-11.815c0.914,0,1.936,0.666,1.936,2.015
		c0,0.839-0.512,2.274-0.92,3.465l-6.832,19.584c-0.605,1.685-1.025,3.03-1.025,3.968c0,2.187,1.525,2.861,3.125,2.861
		c4.631,0,8.607-3.8,11.908-7.421l2.611-2.877c0,0,0.73-0.758,0.004-1.362C184.16,41.072,183.598,41.687,183.598,41.687z"/>
	<rect x="120.796" y="64.269" fill="#C80019" width="58.366" height="14.069"/>
</g>
</svg>
