<?xml version="1.0" encoding="UTF-8" standalone="no"?>
<!-- Generator: Adobe Illustrator 14.0.0, SVG Export Plug-In . SVG Version: 6.00 Build 43363)  -->

<svg
   xmlns:dc="http://purl.org/dc/elements/1.1/"
   xmlns:cc="http://creativecommons.org/ns#"
   xmlns:rdf="http://www.w3.org/1999/02/22-rdf-syntax-ns#"
   xmlns:svg="http://www.w3.org/2000/svg"
   xmlns="http://www.w3.org/2000/svg"
   xmlns:sodipodi="http://sodipodi.sourceforge.net/DTD/sodipodi-0.dtd"
   xmlns:inkscape="http://www.inkscape.org/namespaces/inkscape"
   version="1.0"
   id="Layer_1"
   x="0px"
   y="0px"
   width="256px"
   height="93.983px"
   viewBox="0 0 256 93.983"
   enable-background="new 0 0 256 93.983"
   xml:space="preserve"
   inkscape:version="0.48.4 r9939"
   sodipodi:docname="UFMG-dk.svg"
   inkscape:export-filename="/home/mtcs/Dropbox/pesquisa/faster/faster.page/img/UFMG-dk-sm.png"
   inkscape:export-xdpi="35.431938"
   inkscape:export-ydpi="35.431938"><metadata
     id="metadata19"><rdf:RDF><cc:Work
         rdf:about=""><dc:format>image/svg+xml</dc:format><dc:type
           rdf:resource="http://purl.org/dc/dcmitype/StillImage" /><dc:title></dc:title></cc:Work></rdf:RDF></metadata><defs
     id="defs17" /><sodipodi:namedview
     pagecolor="#ffffff"
     bordercolor="#666666"
     borderopacity="1"
     objecttolerance="10"
     gridtolerance="10"
     guidetolerance="10"
     inkscape:pageopacity="0"
     inkscape:pageshadow="2"
     inkscape:window-width="640"
     inkscape:window-height="480"
     id="namedview15"
     showgrid="false"
     inkscape:zoom="1.3554688"
     inkscape:cx="128"
     inkscape:cy="46.991501"
     inkscape:window-x="0"
     inkscape:window-y="27"
     inkscape:window-maximized="0"
     inkscape:current-layer="Layer_1" /><path
     style="fill:#f2f2f2;fill-rule:evenodd"
     inkscape:connector-curvature="0"
     id="path5"
     d="M 20.189,40.443 V 19.017 c 0,-1.983 -1.623,-2.568 -3.329,-2.744 v -1.877 h 13.052 v 1.872 c -1.639,0.16 -3.028,0.696 -3.028,2.586 v 21.191 c 0,7.179 4.447,10.057 10.452,10.057 10.9,0 10.9,-8.493 10.9,-16.287 v -9.192 c 0,-6.636 -0.56,-8.081 -3.955,-8.36 V 14.395 H 55.26 v 1.856 c -2.006,0.199 -3.43,1.165 -3.43,5.406 v 15.819 c 0,8.966 -4.29,15.819 -15.662,15.819 -9.979,0.002 -15.979,-3.814 -15.979,-12.852 z"
     clip-rule="evenodd" /><path
     style="fill:#f2f2f2;fill-rule:evenodd"
     inkscape:connector-curvature="0"
     id="path7"
     d="M 76.989,47.89 V 19.634 c 0,-2.357 -1.343,-3.136 -3.733,-3.36 v -2.06 c 4.364,0.063 8.695,0.123 13.078,0.123 7.336,0 11.931,-0.083 16.452,-0.169 l 0.222,6.171 h -2.081 C 99.816,17.15 97.754,16.671 92.029,16.671 H 83.69 v 14.732 h 7.325 c 3.169,0 4.897,-0.055 5.425,-2.621 h 1.574 v 7.51 h -1.639 c -0.518,-2.112 -1.965,-2.39 -5.36,-2.39 H 83.69 v 12.433 c 0,3.888 1.519,4.879 4.761,4.974 l 0.028,1.833 H 73.256 v -1.896 c 2.39,-0.221 3.733,-0.996 3.733,-3.356 z"
     clip-rule="evenodd" /><path
     style="fill:#f2f2f2;fill-rule:evenodd"
     inkscape:connector-curvature="0"
     id="path9"
     d="m 236.402,41.696 v 2.508 l -0.027,7.387 c -3.869,1.037 -9.031,2.258 -14.625,2.258 -12.543,0 -21.354,-8.809 -21.354,-19.713 0,-12.472 9.67,-20.34 21.893,-20.34 2.043,0 3.67,0.231 7.338,0.696 1.006,0.162 6.078,1.093 7.162,1.329 l 0.494,7.177 h -2.559 c -1.777,-3.543 -4.234,-6.71 -11.023,-6.71 -8.494,0 -15.67,5.143 -15.67,17.608 0,7.253 4.053,17.463 16.447,17.463 1.947,0 3.746,-0.467 5.531,-1.248 0,-0.693 0.156,-4.986 0.156,-6 0,-3.446 -0.389,-4.898 -3.199,-5.355 v -1.935 h 12.172 v 1.813 c -2.169,0.196 -2.736,0.912 -2.736,3.062 z"
     clip-rule="evenodd" /><path
     style="fill:#c80019;fill-rule:evenodd"
     inkscape:connector-curvature="0"
     id="path11"
     d="m 183.598,41.687 c -1.268,1.354 -5.83,5.318 -7.346,5.318 -0.598,0 -1.365,-0.337 -1.365,-1.015 0,-0.927 0.768,-2.621 1.191,-3.962 l 6.752,-19.755 c 0.42,-1.188 0.85,-2.788 0.85,-4.133 0,-1.865 -0.762,-3.458 -3.381,-3.458 -8.02,0 -20.684,14.173 -25.24,19.915 h -0.17 l 4.053,-12.581 c 0.516,-1.514 0.926,-3.206 0.926,-4.549 0,-1.611 -1.186,-2.785 -3.795,-2.785 -7.506,0 -20.004,13.921 -24.047,19.749 h -0.168 l 4.379,-12.75 c 0.338,-1.015 0.934,-2.612 0.934,-4.052 0,-1.597 -0.842,-2.947 -2.871,-2.947 -5.577,0 -11.482,6.749 -14.684,10.708 0,0 -0.827,1.005 -0.168,1.563 0.744,0.638 1.44,-0.037 1.44,-0.037 l 2.274,-2.531 c 1.519,-1.521 3.127,-2.954 4.893,-2.954 1.018,0 1.35,0.753 1.35,1.688 0,0.753 -0.25,1.597 -0.332,2.105 l -8.789,26.549 c -0.192,0.957 1.599,1.481 2.45,1.481 2.138,0 3.121,-0.636 3.37,-1.32 l 1.528,-4.426 c 2.279,-6.417 5.906,-12.236 10.556,-17.222 2.699,-2.949 7.762,-8.855 12.32,-8.855 1.178,0 1.6,0.934 1.6,2.106 0,2.196 -1.176,5.399 -1.439,6.248 l -7.377,22.021 c -0.162,0.691 0.582,1.657 2.873,1.662 2.113,0.009 2.699,-0.737 2.949,-1.503 l 1.395,-3.453 c 2.352,-6.072 4.725,-10.457 8.688,-15.345 2.705,-3.3 10.387,-11.815 14.777,-11.815 0.914,0 1.936,0.666 1.936,2.015 0,0.839 -0.512,2.274 -0.92,3.465 l -6.832,19.584 c -0.605,1.685 -1.025,3.03 -1.025,3.968 0,2.187 1.525,2.861 3.125,2.861 4.631,0 8.607,-3.8 11.908,-7.421 l 2.611,-2.877 c 0,0 0.73,-0.758 0.004,-1.362 -0.621,-0.513 -1.183,0.102 -1.183,0.102 z"
     clip-rule="evenodd" /><rect
     style="fill:#c80019"
     id="rect13"
     height="14.069"
     width="58.366001"
     y="64.268997"
     x="120.796" /></svg>